<svg width="52" height="52" fill="none" xmlns="http://www.w3.org/2000/svg"><g clip-path="url(#a)" fill="#8A8A8A" fill-opacity=".3"><path d="M4 14a2 2 0 1 0-4 0 2 2 0 0 0 4 0ZM4 2a2 2 0 1 0-4 0 2 2 0 0 0 4 0ZM16 38a2 2 0 1 0-4 0 2 2 0 0 0 4 0ZM16 26a2 2 0 1 0-4 0 2 2 0 0 0 4 0ZM16 14a2 2 0 1 0-4 0 2 2 0 0 0 4 0ZM16 2a2 2 0 1 0-4 0 2 2 0 0 0 4 0ZM28 38a2 2 0 1 0-4 0 2 2 0 0 0 4 0ZM28 26a2 2 0 1 0-4 0 2 2 0 0 0 4 0ZM28 14a2 2 0 1 0-4 0 2 2 0 0 0 4 0ZM28 2a2 2 0 1 0-4 0 2 2 0 0 0 4 0ZM40 50a2 2 0 1 0-4 0 2 2 0 0 0 4 0ZM40 38a2 2 0 1 0-4 0 2 2 0 0 0 4 0ZM40 26a2 2 0 1 0-4 0 2 2 0 0 0 4 0ZM40 14a2 2 0 1 0-4 0 2 2 0 0 0 4 0ZM40 2a2 2 0 1 0-4 0 2 2 0 0 0 4 0ZM52 50a2 2 0 1 0-4 0 2 2 0 0 0 4 0ZM52 38a2 2 0 1 0-4 0 2 2 0 0 0 4 0ZM52 26a2 2 0 1 0-4 0 2 2 0 0 0 4 0ZM52 14a2 2 0 1 0-4 0 2 2 0 0 0 4 0ZM52 2a2 2 0 1 0-4 0 2 2 0 0 0 4 0Z"/></g><defs><clipPath id="a"><path fill="#fff" transform="matrix(1 0 0 -1 0 52)" d="M0 0h52v52H0z"/></clipPath></defs></svg>