<svg width="35" height="32" fill="none" xmlns="http://www.w3.org/2000/svg"><path d="M27.636 8.727h-1.192L23.97 1.92A2.92 2.92 0 0 0 21.236 0H18.91c-.8 0-1.454.655-1.454 1.455s.654 1.454 1.454 1.454h2.327l2.124 5.818h-6.996l-.524-1.454h.13c.8 0 1.455-.655 1.455-1.455s-.654-1.454-1.454-1.454h-4.335c-.8 0-1.454.654-1.454 1.454 0 .8.654 1.455 1.454 1.455h1.091l2.647 7.273H14.4c-.64-3.244-3.36-5.644-6.764-5.804C3.564 8.538 0 11.927 0 16s3.2 7.273 7.273 7.273c3.578 0 6.472-2.459 7.127-5.819h6.11c.64 3.244 3.36 5.644 6.763 5.804 4.072.19 7.636-3.185 7.636-7.272 0-4.059-3.2-7.259-7.273-7.259ZM8.727 17.454h2.647c-.61 1.79-2.327 3.026-4.392 2.895-2.167-.13-3.971-1.963-4.073-4.145-.102-2.546 1.847-4.568 4.364-4.568a4.289 4.289 0 0 1 4.101 2.91H8.727c-.8 0-1.454.654-1.454 1.454 0 .8.654 1.454 1.454 1.454Zm11.782-2.909h-2.036l-1.062-2.909h4.407a6.884 6.884 0 0 0-1.309 2.91Zm6.953 5.819c-2.24-.088-4.131-1.993-4.19-4.248a4.338 4.338 0 0 1 1.528-3.432l.902 2.472a1.451 1.451 0 0 0 1.862.873 1.451 1.451 0 0 0 .872-1.862l-.916-2.516.015-.015A4.319 4.319 0 0 1 32 16c0 2.502-2.007 4.45-4.538 4.364ZM16 27.636h-5.818L18.909 32v-2.91h5.818L16 24.728v2.91Z" fill="#FFBF00"/></svg>