<svg width="39" height="32" fill="none" xmlns="http://www.w3.org/2000/svg"><path d="M28.777 25.573c-2.59 0-4.22.806-5.66 1.535-1.247.633-2.263 1.151-3.932 1.151-1.727 0-2.686-.48-3.933-1.151-1.44-.73-3.012-1.535-5.66-1.535-2.647 0-4.22.806-5.66 1.535-.824.422-1.553.787-2.436.997C.633 28.297 0 28.988 0 29.851v.192c0 1.151 1.074 1.976 2.187 1.746 1.42-.288 2.494-.825 3.472-1.324 1.247-.633 2.245-1.15 3.933-1.15 1.689 0 2.686.479 3.933 1.15 1.439.73 3.012 1.535 5.66 1.535 2.647 0 4.22-.806 5.66-1.535 1.246-.633 2.263-1.15 3.932-1.15 1.727 0 2.686.479 3.933 1.15.997.499 2.072 1.055 3.51 1.343a1.805 1.805 0 0 0 2.15-1.746v-.172c0-.883-.653-1.573-1.516-1.765-.883-.192-1.593-.557-2.418-.998-1.438-.748-3.07-1.554-5.659-1.554Zm0-8.537c-2.59 0-4.22.825-5.66 1.535-1.247.614-2.263 1.15-3.932 1.15-1.727 0-2.686-.479-3.933-1.15-1.44-.73-3.012-1.535-5.66-1.535-2.647 0-4.22.825-5.66 1.535-.824.403-1.553.786-2.455.997C.633 19.76 0 20.451 0 21.314v.192a1.784 1.784 0 0 0 2.149 1.746c1.439-.288 2.513-.844 3.51-1.324 1.247-.671 2.207-1.151 3.933-1.151 1.727 0 2.686.48 3.933 1.151 1.439.73 3.012 1.535 5.66 1.535 2.647 0 4.22-.825 5.66-1.535 1.246-.671 2.205-1.151 3.932-1.151 1.727 0 2.686.48 3.933 1.151.997.499 2.072 1.055 3.51 1.343a1.803 1.803 0 0 0 2.15-1.765v-.173c0-.882-.653-1.573-1.516-1.765-.883-.192-1.593-.556-2.418-.997-1.438-.73-3.07-1.535-5.659-1.535Zm5.66-15.501C32.996.805 31.404 0 28.776 0s-4.22.806-5.66 1.535c-1.247.614-2.263 1.15-3.932 1.15-1.727 0-2.686-.479-3.933-1.15C13.812.825 12.24 0 9.592 0c-2.647 0-4.22.806-5.66 1.535-.824.422-1.553.786-2.436.997C.633 2.724 0 3.415 0 4.278v.134a1.786 1.786 0 0 0 2.149 1.765c1.439-.287 2.513-.844 3.51-1.323 1.247-.633 2.245-1.151 3.933-1.151 1.689 0 2.686.48 3.933 1.15 1.439.73 3.012 1.535 5.66 1.535 2.647 0 4.22-.824 5.66-1.534 1.246-.614 2.263-1.151 3.932-1.151 1.727 0 2.686.48 3.933 1.15.997.5 2.072 1.056 3.51 1.344a1.803 1.803 0 0 0 2.15-1.765v-.173c0-.883-.653-1.573-1.516-1.765-.883-.192-1.593-.537-2.418-.96Zm-5.66 6.964c-2.59 0-4.22.825-5.66 1.535-1.247.671-2.206 1.15-3.932 1.15-1.727 0-2.686-.479-3.933-1.15-1.44-.73-3.012-1.535-5.66-1.535-2.647 0-4.22.825-5.66 1.535-.824.44-1.534.805-2.416.997C.652 11.223 0 11.914 0 12.796v.173a1.784 1.784 0 0 0 2.149 1.746c1.439-.288 2.513-.845 3.51-1.324 1.247-.614 2.264-1.151 3.933-1.151 1.67 0 2.686.48 3.933 1.15 1.439.73 3.012 1.536 5.66 1.536 2.647 0 4.22-.825 5.66-1.535 1.246-.614 2.263-1.151 3.932-1.151 1.727 0 2.686.48 3.933 1.15.997.5 2.072 1.056 3.51 1.344a1.803 1.803 0 0 0 2.15-1.746v-.173c0-.882-.653-1.573-1.516-1.765-.883-.192-1.593-.556-2.418-.997-1.438-.748-3.07-1.554-5.659-1.554Z" fill="#FFBF00"/></svg>